<svg width="214" height="68" viewBox="0 0 214 68" fill="none" xmlns="http://www.w3.org/2000/svg">
<path fill-rule="evenodd" clip-rule="evenodd" d="M205.436 65.4041H8.08685C4.08748 65.4041 0.8466 62.0238 0.8466 57.8523V9.08914C0.8466 4.91766 4.08747 1.53733 8.08685 1.53733H205.436C209.435 1.53733 212.676 4.91768 212.676 9.08914V57.8523C212.676 62.0237 209.435 65.4041 205.436 65.4041Z" fill="black" fill-opacity="0.01"/>
<mask id="mask0_23_68" style="mask-type:alpha" maskUnits="userSpaceOnUse" x="0" y="0" width="214" height="68">
<path fill-rule="evenodd" clip-rule="evenodd" d="M0.0571289 0.717896H213.462V67.1923H0.0571289V0.717896Z" fill="black"/>
</mask>
<g mask="url(#mask0_23_68)">
<path fill-rule="evenodd" clip-rule="evenodd" d="M205.438 66.2255H8.0867C3.65832 66.2255 0.057373 62.4664 0.057373 57.8483V9.09511C0.057373 4.47707 3.65832 0.717896 8.0867 0.717896H205.438C209.865 0.717896 213.467 4.47707 213.467 9.09511V57.8483C213.467 62.4664 209.865 66.2255 205.438 66.2255ZM8.08681 2.3714C4.53184 2.3714 1.6396 5.38752 1.6396 9.09473V57.848C1.6396 61.5552 4.53185 64.5713 8.08681 64.5713H205.438C208.993 64.5713 211.885 61.5552 211.885 57.848V9.09473C211.885 5.38751 208.993 2.3714 205.438 2.3714H8.08681Z" fill="#A7A9AB"/>
</g>
<path fill-rule="evenodd" clip-rule="evenodd" d="M71.107 19.3478L70.2183 22.3998H68.2722L71.582 11.6378H73.9839L77.3359 22.3998H75.317L74.3823 19.3478M74.0602 17.8635L73.2482 15.2109C73.049 14.5557 72.8804 13.8247 72.7272 13.2015H72.6965C72.5471 13.8247 72.39 14.5718 72.21 15.2109L71.4132 17.8635H74.0602Z" fill="white"/>
<path fill-rule="evenodd" clip-rule="evenodd" d="M80.1545 14.6253L81.3629 18.564C81.5769 19.2511 81.726 19.8743 81.8638 20.5135H81.9096C82.0473 19.8743 82.2155 19.2671 82.4144 18.564L83.6074 14.6253H85.5767L82.7356 22.3989H80.8887L78.1202 14.6253" fill="white"/>
<path fill-rule="evenodd" clip-rule="evenodd" d="M93.0996 20.527C93.0996 21.2301 93.1303 21.9173 93.2221 22.3926H91.5212L91.3872 21.5338H91.3374C90.8969 22.137 90.1153 22.5684 89.1347 22.5684C87.6331 22.5684 86.7941 21.4379 86.7941 20.2554C86.7941 18.3059 88.4605 17.3031 91.2148 17.3192V17.1914C91.2148 16.68 91.0194 15.833 89.7017 15.833C88.9662 15.833 88.2 16.0728 87.6943 16.4083L87.3266 15.1299C87.8782 14.7784 88.8436 14.4469 90.0235 14.4469C92.4101 14.4469 93.0996 16.0248 93.0996 17.7346M91.2646 18.595C89.9314 18.5789 88.6597 18.8666 88.6597 20.049C88.6597 20.816 89.1346 21.1676 89.7322 21.1676C90.4946 21.1676 91.0347 20.6563 91.2147 20.097C91.2646 19.9532 91.2646 19.8094 91.2646 19.6655V18.595Z" fill="white"/>
<path fill-rule="evenodd" clip-rule="evenodd" d="M96.6928 13.5024C96.0683 13.5024 95.6547 13.0231 95.6547 12.4478C95.6547 11.8406 96.0799 11.3772 96.712 11.3772C97.3517 11.3772 97.7501 11.8406 97.7654 12.4478C97.7654 13.0231 97.3517 13.5024 96.712 13.5024M95.7616 14.6238H97.6412V22.3977H95.7616V14.6238Z" fill="white"/>
<path fill-rule="evenodd" clip-rule="evenodd" d="M100.352 22.3978H102.234V11.0445H100.352V22.3978Z" fill="white"/>
<path fill-rule="evenodd" clip-rule="evenodd" d="M110.744 20.5265C110.744 21.2296 110.774 21.9167 110.866 22.3921H109.17L109.032 21.5332H108.986C108.541 22.1364 107.76 22.5679 106.779 22.5679C105.281 22.5679 104.439 21.4373 104.439 20.2549C104.439 18.3053 106.109 17.3026 108.863 17.3186V17.1908C108.863 16.6795 108.664 15.8325 107.346 15.8325C106.61 15.8325 105.844 16.0722 105.342 16.4078L104.975 15.1294C105.527 14.7779 106.488 14.4464 107.667 14.4464C110.054 14.4464 110.744 16.0243 110.744 17.7341M108.909 18.5948C107.576 18.5788 106.304 18.8664 106.304 20.0489C106.304 20.8159 106.779 21.1675 107.377 21.1675C108.143 21.1675 108.679 20.6562 108.863 20.0968C108.909 19.953 108.909 19.8093 108.909 19.6654V18.5948Z" fill="white"/>
<path fill-rule="evenodd" clip-rule="evenodd" d="M113.406 11.0467H115.291V15.6926H115.322C115.782 14.9416 116.59 14.4503 117.709 14.4503C119.532 14.4503 120.83 16.0282 120.816 18.3931C120.816 21.1856 119.118 22.5758 117.433 22.5758C116.467 22.5758 115.613 22.1923 115.077 21.2335H115.046L114.954 22.4H113.346C113.376 21.8727 113.406 21.0098 113.406 20.2268M115.291 19.1857C115.291 19.3455 115.307 19.5053 115.337 19.6491C115.536 20.4481 116.195 21.0234 117.003 21.0234C118.183 21.0234 118.904 20.0486 118.904 18.4707C118.904 17.0964 118.275 15.9779 117.019 15.9779C116.252 15.9779 115.552 16.5531 115.352 17.416C115.321 17.5598 115.291 17.7356 115.291 17.9273L115.291 19.1857Z" fill="white"/>
<path fill-rule="evenodd" clip-rule="evenodd" d="M123.033 22.4002H124.913V11.0469H123.033V22.4002Z" fill="white"/>
<path fill-rule="evenodd" clip-rule="evenodd" d="M128.971 19.0563C129.017 20.4625 130.074 21.0696 131.27 21.0696C132.139 21.0696 132.752 20.9258 133.334 20.7181L133.61 22.0564C132.966 22.348 132.078 22.5518 131.009 22.5518C128.588 22.5518 127.162 21.0057 127.162 18.6288C127.162 16.4715 128.42 14.4462 130.81 14.4462C133.227 14.4462 134.023 16.5195 134.023 18.2293C134.023 18.5969 133.993 18.8845 133.963 19.0563M132.246 17.6876C132.262 16.9685 131.955 15.7861 130.703 15.7861C129.538 15.7861 129.047 16.8886 128.971 17.6876H132.246Z" fill="white"/>
<path fill-rule="evenodd" clip-rule="evenodd" d="M143.313 22.5719C141.215 22.5719 139.579 21.0697 139.579 18.565C139.579 16.0083 141.183 14.4464 143.436 14.4464C145.654 14.4464 147.14 16.0722 147.14 18.4372C147.14 21.2935 145.21 22.5719 143.329 22.5719M143.375 21.1513C144.443 21.1513 145.194 20.0647 145.194 18.4867C145.194 17.2722 144.673 15.866 143.39 15.866C142.057 15.866 141.52 17.2243 141.52 18.5186C141.52 20.0167 142.24 21.1513 143.355 21.1513L143.375 21.1513Z" fill="white"/>
<path fill-rule="evenodd" clip-rule="evenodd" d="M149.353 16.9385C149.353 16.0443 149.327 15.2939 149.296 14.6233H150.931L151.022 15.7889H151.068C151.405 15.1821 152.217 14.4517 153.458 14.4517C154.755 14.4517 156.103 15.3258 156.103 17.7846V22.3909H154.219V18.0081C154.219 16.8905 153.821 16.0443 152.799 16.0443C152.048 16.0443 151.528 16.6031 151.329 17.1939C151.267 17.3535 151.237 17.593 151.237 17.8165V22.3909H149.353" fill="white"/>
<path fill-rule="evenodd" clip-rule="evenodd" d="M164.787 12.6332V14.6239H166.578V16.0921H164.787V19.5033C164.787 20.4608 165.033 20.9395 165.75 20.9395C166.087 20.9395 166.271 20.9236 166.486 20.8597L166.516 22.3399C166.24 22.4556 165.735 22.5474 165.152 22.5474C164.45 22.5474 163.882 22.308 163.529 21.913C163.115 21.4662 162.931 20.748 162.931 19.7267V16.0921H161.872V14.6239H162.931V13.1758" fill="white"/>
<path fill-rule="evenodd" clip-rule="evenodd" d="M168.664 11.0419H170.549V15.6733H170.581C170.81 15.3057 171.132 15.0019 171.516 14.7942C171.899 14.5744 172.34 14.4465 172.815 14.4465C174.088 14.4465 175.418 15.3216 175.418 17.8152V22.3987H173.536V18.023C173.536 16.9041 173.137 16.041 172.095 16.041C171.363 16.041 170.841 16.5525 170.627 17.1439C170.565 17.3197 170.549 17.5275 170.549 17.7353V22.3987H168.664" fill="white"/>
<path fill-rule="evenodd" clip-rule="evenodd" d="M179.43 19.0563C179.476 20.4625 180.529 21.0696 181.725 21.0696C182.598 21.0696 183.211 20.9258 183.79 20.7181L184.069 22.0564C183.425 22.348 182.537 22.5518 181.464 22.5518C179.047 22.5518 177.622 21.0057 177.622 18.6288C177.622 16.4715 178.879 14.4462 181.265 14.4462C183.682 14.4462 184.479 16.5195 184.479 18.2293C184.479 18.5969 184.448 18.8845 184.418 19.0563M182.705 17.6876C182.721 16.9685 182.414 15.7861 181.157 15.7861C179.992 15.7861 179.506 16.8886 179.429 17.6876H182.705Z" fill="white"/>
<path fill-rule="evenodd" clip-rule="evenodd" d="M47.6909 32.8276C47.6411 27.5023 51.8711 24.9097 52.0665 24.7898C49.6718 21.1464 45.9591 20.651 44.6526 20.611C41.5375 20.2715 38.5143 22.5606 36.9281 22.5606C35.3073 22.5606 32.859 20.647 30.2267 20.703C26.832 20.7589 23.6594 22.8083 21.9199 25.9842C18.3335 32.4681 21.008 41.9921 24.4487 47.2335C26.1729 49.7982 28.1807 52.6666 30.813 52.5627C33.3878 52.4508 34.3494 50.8529 37.4568 50.8529C40.5374 50.8529 41.4417 52.5627 44.1276 52.4988C46.8901 52.4508 48.6296 49.9221 50.2887 47.3293C52.2811 44.389 53.0781 41.4927 53.1087 41.3449C53.0436 41.3209 47.7446 39.2116 47.6909 32.8276" fill="white"/>
<path fill-rule="evenodd" clip-rule="evenodd" d="M42.6101 17.1782C43.9935 15.3721 44.9475 12.9108 44.6793 10.4174C42.6753 10.5133 40.1694 11.8638 38.7247 13.63C37.4487 15.1883 36.303 17.7416 36.6019 20.1391C38.855 20.3148 41.1656 18.9563 42.6101 17.1782" fill="white"/>
<path fill-rule="evenodd" clip-rule="evenodd" d="M84.8978 52.1415H81.3084L79.3432 45.7018H72.5167L70.6435 52.1415H67.1498L73.9226 30.2178H78.0981M78.753 42.9988L76.9755 37.2742C76.7878 36.691 76.4353 35.3127 75.9144 33.1475H75.8531C75.6462 34.0784 75.3091 35.4565 74.8532 37.2742L73.1064 42.9988H78.753Z" fill="white"/>
<path fill-rule="evenodd" clip-rule="evenodd" d="M102.305 44.0397C102.305 46.7282 101.608 48.8574 100.213 50.4155C98.9638 51.8056 97.4127 52.4967 95.5663 52.4967C93.5667 52.4967 92.1339 51.7457 91.2605 50.2516H91.1992V58.5809H87.8281V41.5349C87.8281 39.845 87.7898 38.1113 87.7056 36.3295H90.6667L90.8544 38.8383H90.9196C92.042 36.9488 93.7468 36.006 96.0337 36.006C97.8189 36.006 99.3168 36.7451 100.508 38.2192C101.703 39.6973 102.305 41.6347 102.305 44.0397ZM98.8725 44.1737C98.8725 42.6317 98.5391 41.3653 97.8724 40.3666C97.1446 39.3279 96.1677 38.8046 94.9418 38.8046C94.1106 38.8046 93.352 39.0962 92.6817 39.6675C92.0074 40.2467 91.5631 40.9978 91.3524 41.9326C91.249 42.3641 91.1992 42.7196 91.1992 42.9992V45.6359C91.1992 46.7864 91.5363 47.7571 92.2105 48.5481C92.8886 49.3431 93.7658 49.7346 94.8461 49.7346C96.1179 49.7346 97.1062 49.2272 97.8073 48.2045C98.5194 47.1858 98.8725 45.8436 98.8725 44.1737" fill="white"/>
<path fill-rule="evenodd" clip-rule="evenodd" d="M119.735 44.0392C119.735 46.7277 119.042 48.8569 117.647 50.415C116.399 51.8051 114.851 52.4963 113.001 52.4963C111.005 52.4963 109.572 51.7452 108.694 50.2512H108.638V58.5804H105.266V41.5344C105.266 39.8445 105.224 38.1108 105.143 36.3291H108.105L108.292 38.8378H108.358C109.476 36.9483 111.181 36.0055 113.468 36.0055C115.257 36.0055 116.747 36.7446 117.946 38.2187C119.142 39.6968 119.735 41.6342 119.735 44.0392ZM116.306 44.1739C116.306 42.6319 115.973 41.3655 115.307 40.3667C114.578 39.3281 113.602 38.8048 112.376 38.8048C111.545 38.8048 110.79 39.0964 110.116 39.6676C109.438 40.2469 109.001 40.998 108.794 41.9328C108.687 42.3643 108.637 42.7197 108.637 42.9993V45.636C108.637 46.7865 108.971 47.7573 109.645 48.5482C110.323 49.3433 111.2 49.7347 112.285 49.7347C113.552 49.7347 114.54 49.2274 115.245 48.2047C115.95 47.186 116.306 45.8438 116.306 44.1739" fill="white"/>
<path fill-rule="evenodd" clip-rule="evenodd" d="M150.367 38.9677H146.654V46.6405C146.654 48.5937 147.309 49.5683 148.623 49.5683C149.222 49.5683 149.723 49.5163 150.118 49.4085L150.209 52.0726C149.551 52.3363 148.673 52.4641 147.593 52.4641C146.264 52.4641 145.221 52.0407 144.471 51.1979C143.724 50.3512 143.348 48.9292 143.348 46.9361V38.9677H141.134V36.3316H143.348V33.4398L146.654 32.3974V36.3316H150.367" fill="white"/>
<path fill-rule="evenodd" clip-rule="evenodd" d="M167.118 44.1076C167.118 46.5365 166.455 48.5299 165.122 50.0918C163.728 51.6978 161.878 52.4967 159.571 52.4967C157.342 52.4967 155.572 51.7257 154.25 50.1877C152.933 48.6497 152.274 46.7083 152.274 44.3672C152.274 41.9144 152.951 39.909 154.316 38.351C155.676 36.7849 157.511 36.006 159.816 36.006C162.042 36.006 163.835 36.777 165.183 38.315C166.474 39.8171 167.118 41.7426 167.118 44.1076ZM163.624 44.2213C163.624 42.7632 163.321 41.5168 162.716 40.4701C162.015 39.2077 161.004 38.5765 159.694 38.5765C158.341 38.5765 157.312 39.2077 156.606 40.4701C156.001 41.5167 155.706 42.7871 155.706 44.2892C155.706 45.7473 156.001 46.9937 156.606 48.0363C157.334 49.2987 158.353 49.9299 159.667 49.9299C160.951 49.9299 161.962 49.2908 162.69 48.0044C163.314 46.9418 163.624 45.6794 163.624 44.2213" fill="white"/>
<path fill-rule="evenodd" clip-rule="evenodd" d="M178.068 39.429C177.734 39.3651 177.381 39.3331 177.007 39.3331C175.823 39.3331 174.903 39.8003 174.259 40.7307C173.7 41.5573 173.42 42.5955 173.42 43.8494V52.1433H170.053L170.079 41.3177C170.079 39.4929 170.037 37.8357 169.957 36.3381H172.891L173.014 39.3651H173.102C173.458 38.3268 174.022 37.4882 174.788 36.8612C175.539 36.2983 176.351 36.0147 177.224 36.0147C177.535 36.0147 177.819 36.0386 178.068 36.0786" fill="white"/>
<path fill-rule="evenodd" clip-rule="evenodd" d="M193.125 43.4885C193.125 44.1197 193.086 44.647 193.006 45.0825H182.904C182.938 46.6445 183.429 47.8389 184.367 48.6619C185.218 49.4009 186.322 49.7644 187.674 49.7644C189.168 49.7644 190.532 49.5167 191.761 49.0174L192.29 51.4583C190.853 52.1054 189.16 52.437 187.202 52.437C184.855 52.437 183.008 51.7139 181.667 50.2678C180.33 48.8297 179.656 46.8921 179.656 44.4632C179.656 42.0783 180.277 40.0929 181.529 38.5109C182.835 36.8172 184.606 35.9742 186.827 35.9742C189.011 35.9742 190.669 36.8172 191.792 38.5109C192.684 39.8532 193.125 41.515 193.125 43.4885M189.915 42.5799C189.938 41.5413 189.719 40.6385 189.264 39.8794C188.681 38.9046 187.781 38.4133 186.578 38.4133C185.478 38.4133 184.582 38.8926 183.897 39.8474C183.338 40.6064 183 41.5172 182.904 42.5799H189.915Z" fill="white"/>
</svg>
