<svg width="442" height="635" viewBox="0 0 442 635" fill="none" xmlns="http://www.w3.org/2000/svg">
<path fill-rule="evenodd" clip-rule="evenodd" d="M180.489 3.33766C180.489 1.89997 181.244 0.646726 182.356 0H185.787C186.899 0.646702 187.655 1.89994 187.655 3.33766C187.655 5.43339 186.046 7.13757 184.072 7.13757C182.095 7.13757 180.489 5.43339 180.489 3.33766ZM231.356 3.33766C231.356 1.89997 232.111 0.646726 233.223 0H236.654C237.766 0.646702 238.522 1.89994 238.522 3.33766C238.522 5.43339 236.914 7.13757 234.939 7.13757C232.963 7.13757 231.356 5.43339 231.356 3.33766ZM282.228 3.33766C282.228 1.89997 282.983 0.646726 284.094 0H287.526C288.637 0.646702 289.394 1.89994 289.394 3.33766C289.394 5.43339 287.785 7.13757 285.811 7.13757C283.834 7.13757 282.228 5.43339 282.228 3.33766ZM333.095 3.33766C333.095 1.89997 333.85 0.646726 334.962 0H338.393C339.505 0.646702 340.261 1.89994 340.261 3.33766C340.261 5.43339 338.653 7.13757 336.678 7.13757C334.702 7.13757 333.095 5.43339 333.095 3.33766ZM383.962 3.33766C383.962 1.89997 384.718 0.646726 385.83 0H389.261C390.373 0.646702 391.129 1.89994 391.129 3.33766C391.129 5.43339 389.52 7.13757 387.546 7.13757C385.569 7.13757 383.962 5.43339 383.962 3.33766ZM434.834 3.33766C434.834 1.89997 435.589 0.646726 436.701 0H440.132C441.244 0.646702 442 1.89994 442 3.33766C442 5.43339 440.391 7.13757 438.417 7.13757C436.44 7.13757 434.834 5.43339 434.834 3.33766ZM282.228 57.29C282.228 55.1937 283.834 53.4872 285.811 53.4872C287.785 53.4872 289.394 55.1937 289.394 57.29C289.394 59.384 287.785 61.0882 285.811 61.0882C283.834 61.0882 282.228 59.384 282.228 57.29ZM333.095 57.29C333.095 55.1937 334.702 53.4872 336.678 53.4872C338.653 53.4872 340.261 55.1937 340.261 57.29C340.261 59.384 338.653 61.0882 336.678 61.0882C334.702 61.0882 333.095 59.384 333.095 57.29ZM383.962 57.29C383.962 55.1937 385.569 53.4872 387.546 53.4872C389.52 53.4872 391.129 55.1937 391.129 57.29C391.129 59.384 389.52 61.0882 387.546 61.0882C385.569 61.0882 383.962 59.384 383.962 57.29ZM434.834 57.29C434.834 55.1937 436.44 53.4872 438.417 53.4872C440.391 53.4872 442 55.1937 442 57.29C442 59.384 440.391 61.0882 438.417 61.0882C436.44 61.0882 434.834 59.384 434.834 57.29ZM333.095 111.242C333.095 109.144 334.702 107.44 336.678 107.44C338.653 107.44 340.261 109.144 340.261 111.242C340.261 113.336 338.653 115.042 336.678 115.042C334.702 115.042 333.095 113.336 333.095 111.242ZM383.962 111.242C383.962 109.144 385.569 107.44 387.546 107.44C389.52 107.44 391.129 109.144 391.129 111.242C391.129 113.336 389.52 115.042 387.546 115.042C385.569 115.042 383.962 113.336 383.962 111.242ZM434.834 111.242C434.834 109.144 436.44 107.44 438.417 107.44C440.391 107.44 442 109.144 442 111.242C442 113.336 440.391 115.042 438.417 115.042C436.44 115.042 434.834 113.336 434.834 111.242ZM383.962 165.191C383.962 163.096 385.569 161.393 387.546 161.393C389.52 161.393 391.129 163.096 391.129 165.191C391.129 167.289 389.52 168.995 387.546 168.995C385.569 168.995 383.962 167.289 383.962 165.191ZM434.834 165.191C434.834 163.096 436.44 161.393 438.417 161.393C440.391 161.393 442 163.096 442 165.191C442 167.289 440.391 168.995 438.417 168.995C436.44 168.995 434.834 167.289 434.834 165.191ZM434.834 219.143C434.834 217.049 436.44 215.345 438.417 215.345C440.391 215.345 442 217.049 442 219.143C442 221.239 440.391 222.943 438.417 222.943C436.44 222.943 434.834 221.239 434.834 219.143ZM180.489 57.29C180.489 59.384 182.095 61.0882 184.072 61.0882C186.046 61.0882 187.655 59.384 187.655 57.29C187.655 55.1937 186.046 53.4872 184.072 53.4872C182.095 53.4872 180.489 55.1937 180.489 57.29ZM231.356 57.29C231.356 59.384 232.963 61.0882 234.939 61.0882C236.914 61.0882 238.522 59.384 238.522 57.29C238.522 55.1937 236.914 53.4872 234.939 53.4872C232.963 53.4872 231.356 55.1937 231.356 57.29ZM180.489 111.242C180.489 113.336 182.095 115.042 184.072 115.042C186.046 115.042 187.655 113.336 187.655 111.242C187.655 109.144 186.046 107.44 184.072 107.44C182.095 107.44 180.489 109.144 180.489 111.242ZM231.356 111.242C231.356 113.336 232.963 115.042 234.939 115.042C236.914 115.042 238.522 113.336 238.522 111.242C238.522 109.144 236.914 107.44 234.939 107.44C232.963 107.44 231.356 109.144 231.356 111.242ZM282.228 111.242C282.228 113.336 283.834 115.042 285.811 115.042C287.785 115.042 289.394 113.336 289.394 111.242C289.394 109.144 287.785 107.44 285.811 107.44C283.834 107.44 282.228 109.144 282.228 111.242ZM180.489 165.191C180.489 167.289 182.095 168.995 184.072 168.995C186.046 168.995 187.655 167.289 187.655 165.191C187.655 163.096 186.046 161.393 184.072 161.393C182.095 161.393 180.489 163.096 180.489 165.191ZM231.356 165.191C231.356 167.289 232.963 168.995 234.939 168.995C236.914 168.995 238.522 167.289 238.522 165.191C238.522 163.096 236.914 161.393 234.939 161.393C232.963 161.393 231.356 163.096 231.356 165.191ZM282.228 165.191C282.228 167.289 283.834 168.995 285.811 168.995C287.785 168.995 289.394 167.289 289.394 165.191C289.394 163.096 287.785 161.393 285.811 161.393C283.834 161.393 282.228 163.096 282.228 165.191ZM333.095 165.191C333.095 167.289 334.702 168.995 336.678 168.995C338.653 168.995 340.261 167.289 340.261 165.191C340.261 163.096 338.653 161.393 336.678 161.393C334.702 161.393 333.095 163.096 333.095 165.191ZM180.489 219.143C180.489 221.239 182.095 222.943 184.072 222.943C186.046 222.943 187.655 221.239 187.655 219.143C187.655 217.049 186.046 215.345 184.072 215.345C182.095 215.345 180.489 217.049 180.489 219.143ZM231.356 219.143C231.356 221.239 232.963 222.943 234.939 222.943C236.914 222.943 238.522 221.239 238.522 219.143C238.522 217.049 236.914 215.345 234.939 215.345C232.963 215.345 231.356 217.049 231.356 219.143ZM282.228 219.143C282.228 221.239 283.834 222.943 285.811 222.943C287.785 222.943 289.394 221.239 289.394 219.143C289.394 217.049 287.785 215.345 285.811 215.345C283.834 215.345 282.228 217.049 282.228 219.143ZM333.095 219.143C333.095 221.239 334.702 222.943 336.678 222.943C338.653 222.943 340.261 221.239 340.261 219.143C340.261 217.049 338.653 215.345 336.678 215.345C334.702 215.345 333.095 217.049 333.095 219.143ZM58.9933 628.807C40.5429 624.803 22.3973 618.83 5.05607 611.052C3.36418 610.292 1.67935 609.516 0 608.721V51.7718C1.67935 50.9768 3.36418 50.2 5.05607 49.4412C22.3993 41.6609 40.5468 35.6878 58.9933 31.6847C77.9217 27.5759 97.4065 25.4921 116.901 25.4921C146.599 25.4921 175.873 30.2793 203.913 39.7151C231.043 48.8466 256.713 62.2187 280.208 79.4591C303.388 96.4727 324.062 116.959 341.655 140.349C359.396 163.939 373.685 190.066 384.126 218.004C384.018 218.371 383.962 218.755 383.962 219.143C383.962 220.49 384.643 221.748 385.74 222.428C385.221 220.974 384.678 219.485 384.126 218.006C384.596 216.413 385.97 215.345 387.546 215.345C389.52 215.345 391.129 217.049 391.129 219.143C391.129 221.239 389.52 222.943 387.546 222.943C386.908 222.943 386.285 222.766 385.74 222.428C398.018 256.845 404.242 293.119 404.242 330.247C404.242 350.923 402.277 371.587 398.403 391.665C394.627 411.231 388.995 430.479 381.66 448.871C374.46 466.928 365.545 484.344 355.168 500.637C344.888 516.775 333.083 531.949 320.08 545.74C307.077 559.531 292.768 572.052 277.555 582.952C262.196 593.959 245.773 603.411 228.746 611.051C211.405 618.829 193.258 624.803 174.809 628.807C155.879 632.917 136.396 635 116.901 635C97.4065 635 77.9236 632.917 58.9934 628.807L58.9933 628.807Z" fill="#5A8EBE" fill-opacity="0.53"/>
</svg>
