<svg width="757" height="841" viewBox="0 0 757 841" fill="none" xmlns="http://www.w3.org/2000/svg">
<path fill-rule="evenodd" clip-rule="evenodd" d="M283.735 684.637L283.736 684.637C254.278 682.982 225.351 676.387 197.759 665.036C170.983 654.021 145.724 638.644 122.684 619.332C104.128 603.78 87.1189 585.756 72.1279 565.762C57.0696 545.678 44.054 523.613 33.4427 500.18C22.6421 476.328 14.3197 451.024 8.70721 424.972C5.85091 411.714 3.66834 398.099 2.22013 384.505C0.746954 370.677 0 356.553 0 342.526C0 330.842 0.518687 319.06 1.54158 307.505C2.54974 296.117 4.07212 284.675 6.06635 273.495C8.03464 262.461 10.5101 251.416 13.424 240.67C16.3056 230.042 19.6839 219.454 23.4646 209.2C30.948 188.904 40.2104 169.328 50.9945 151.017C61.6757 132.88 73.9427 115.824 87.4549 100.324C100.967 84.8237 115.835 70.7517 131.645 58.4984C147.608 46.1272 164.673 35.5019 182.365 26.9176C191.306 22.5796 200.535 18.7043 209.798 15.3998C219.166 12.0569 228.794 9.21716 238.414 6.9594C248.161 4.67133 258.135 2.92483 268.061 1.76865C278.133 0.595184 288.405 0 298.59 0C311.546 0 324.586 0.962121 337.345 2.85936C349.877 4.72222 362.411 7.52797 374.602 11.1981C398.549 18.4081 421.688 29.0713 443.375 42.8914C464.694 56.4764 484.562 73.0765 502.427 92.2305C520.254 111.343 536.015 132.921 549.272 156.365C544.359 156.088 539.358 155.947 534.41 155.947C369.767 155.947 235.82 309.604 235.82 498.474C235.82 564.837 252.389 629.212 283.737 684.637L283.736 684.636V684.636C283.737 684.637 283.737 684.637 283.737 684.637C283.737 684.637 283.737 684.637 283.737 684.637L283.735 684.637ZM534.41 841C502.211 841 470.535 835.156 440.263 823.63C410.992 812.485 383.484 796.218 358.504 775.28C343.822 762.973 330.035 749.046 317.527 733.887C305.003 718.708 293.635 702.138 283.736 684.637H283.736C288.649 684.913 293.646 685.054 298.59 685.054C463.233 685.054 597.18 531.397 597.18 342.527C597.18 276.162 580.613 211.789 549.271 156.365C559.039 156.914 568.871 158.021 578.496 159.655C587.995 161.267 597.527 163.433 606.827 166.09C616.016 168.716 625.201 171.886 634.128 175.514C642.962 179.103 651.755 183.226 660.262 187.768C677.118 196.767 693.341 207.659 708.48 220.141C723.5 232.524 737.6 246.592 750.387 261.954C763.189 277.333 774.797 294.154 784.888 311.949C795.081 329.926 803.828 349.077 810.887 368.872C814.454 378.876 817.64 389.194 820.356 399.539C823.102 409.998 825.435 420.74 827.289 431.466C829.167 442.328 830.601 453.442 831.55 464.497C832.512 475.709 833 487.14 833 498.474C833 510.158 832.481 521.941 831.458 533.495C830.451 544.882 828.928 556.324 826.934 567.505C824.965 578.539 822.49 589.584 819.576 600.331C816.694 610.958 813.316 621.546 809.535 631.801C802.052 652.097 792.789 671.672 782.005 689.983C771.324 708.12 759.057 725.176 745.545 740.676C732.033 756.176 717.165 770.249 701.354 782.502C685.392 794.872 668.328 805.498 650.634 814.083C641.695 818.42 632.466 822.295 623.201 825.601C613.833 828.943 604.206 831.783 594.586 834.041C584.841 836.329 574.866 838.075 564.939 839.232C554.865 840.405 544.594 841 534.409 841H534.41Z" fill="#E8F3FF"/>
</svg>
